<?xml version="1.0" encoding="UTF-8"?>
<svg width="39" height="39" version="1.1" xmlns="http://www.w3.org/2000/svg">
 <path d="m37.85 16.24v-1.52c-0.34 0.27-1.23 0.94-2.13 0.94-1.13 0-2.27-1.07-2.27-1.07l-0.04 0.04a4.4 4.4 0 0 1-1.85 0.99l-0.18 0.03h-0.19c-1.13 0-2.27-1.07-2.27-1.07s-1.14 1.07-2.27 1.07a2.98 2.98 0 0 1-2.11-1.06 2.44 2.44 0 0 1-0.4-0.77l-4.13-13.22-4.61 14.8-15.24-0.1 12.4 9.04-4.81 14.73 12.27-9.2 12.26 9.21-4.3-13.2c-0.42 0.23-0.88 0.36-1.36 0.38-1.13 0-2.27-0.97-2.27-0.97s-1.14 0.97-2.27 0.97c-1.14 0-2.28-1.06-2.28-1.06v0.09-1.73s1.14 1.06 2.28 1.06c1.13 0 2.27-1.06 2.27-1.06s1.14 1.06 2.27 1.06c1 0 1.99-0.8 2.22-1.01v-1.83c-0.24 0.19-1.23 0.92-2.22 0.92-1.13 0-2.27-0.97-2.27-0.97s-1.14 0.97-2.27 0.97c-1.14 0-2.27-1.06-2.27-1.06v0.09-1.73s1.13 1.06 2.27 1.06 2.27-1.06 2.27-1.06 1.13 1.06 2.27 1.06 2.28-1.06 2.28-1.06 1.13 1.06 2.27 1.06h0.18l0.19-0.03c0.35-0.07 0.7-0.2 1.01-0.39l0.82-0.6v-1.86c-0.54 0.42-1.16 0.73-1.82 0.89l-0.19 0.02h-0.18c-1.14 0-2.27-0.97-2.27-0.97s-1.14 0.97-2.28 0.97-2.27-0.97-2.27-0.97-1.14 0.97-2.27 0.97c-1.14 0-2.28-1.06-2.28-1.06v0.09-1.73c0-0.02 1.14 1.07 2.28 1.07 0.5-0.03 1-0.18 1.42-0.45 0.3-0.16 0.59-0.35 0.85-0.57 0.25 0.2 0.51 0.38 0.79 0.54 0.44 0.29 0.95 0.45 1.48 0.48 0.5-0.02 1-0.18 1.42-0.45 0.3-0.16 0.58-0.35 0.84-0.56 0.26 0.2 0.54 0.4 0.83 0.55 0.44 0.28 0.93 0.43 1.44 0.46h0.19l0.18-0.02a5.5 5.5 0 0 0 1.9-0.98c0.24 0.2 0.5 0.38 0.78 0.53a3 3 0 0 0 1.48 0.48 2.9 2.9 0 0 0 1.37-0.42c0.27-0.14 0.52-0.3 0.76-0.47v-0.32z" fill="#ccc"/>
</svg>
